<svg id="Layer_1" data-name="Layer 1" xmlns="http://www.w3.org/2000/svg" viewBox="0 0 360 360"><defs><style>.cls-1{fill:#d7df23;}</style></defs><title>Artboard 1</title><path class="cls-1" d="M183.25,38.73c12.64-15.69,24.32,2.79,4.21,6.67,20.11-3.88,17.17,17.79-1.06,7.81,18.23,10,2.06,24.69-5.83,5.3,7.89,19.39-14,20.26-7.88.31-6.08,19.95-23.38,6.57-6.24-4.82-17.14,11.39-21.79-10-1.67-7.7-20.12-2.27-9.95-21.63,3.66-7-13.61-14.65,6.62-22.94,7.3-3C175.06,16.38,195.89,23,183.25,38.73Z"/><path class="cls-1" d="M89.55,68.15c-.68-19.94,20.15-13.29,7.5,2.4,12.65-15.69,24.33,2.79,4.21,6.67C121.38,73.34,118.44,95,100.21,85c18.23,10,2.05,24.69-5.84,5.3,7.89,19.39-14,20.26-7.87.31-6.08,20-23.38,6.58-6.24-4.82-17.14,11.4-21.79-10-1.68-7.7-20.11-2.27-9.94-21.62,3.67-7C68.64,56.5,88.87,48.21,89.55,68.15Z"/><path class="cls-1" d="M36.68,150.92c-13.61-14.65,6.62-22.94,7.29-3-.67-20,20.16-13.29,7.51,2.4,12.65-15.69,24.33,2.79,4.21,6.66,20.12-3.87,17.18,17.8-1.06,7.82,18.24,10,2.06,24.69-5.83,5.3,7.89,19.39-14,20.26-7.88.31-6.08,20-23.37,6.57-6.23-4.82C17.55,177,12.9,155.63,33,157.9,12.9,155.63,23.07,136.27,36.68,150.92Z"/><path class="cls-1" d="M49.38,248.31c-20.11-2.27-9.94-21.63,3.67-7-13.61-14.65,6.62-22.94,7.29-3-.67-20,20.16-13.29,7.51,2.4,12.65-15.69,24.33,2.79,4.21,6.66,20.12-3.87,17.18,17.8-1.06,7.81,18.24,10,2.06,24.7-5.83,5.31,7.89,19.39-14,20.26-7.88.31-6.08,19.95-23.37,6.57-6.23-4.82C33.92,267.4,29.27,246,49.38,248.31Z"/><path class="cls-1" d="M121.71,314.74c-17.14,11.4-21.79-10-1.68-7.7-20.11-2.27-9.94-21.62,3.67-7-13.61-14.64,6.62-22.93,7.3-3-.68-19.94,20.15-13.29,7.5,2.4,12.65-15.69,24.33,2.79,4.21,6.67,20.12-3.88,17.18,17.79-1.05,7.81,18.23,10,2.05,24.69-5.84,5.3,7.89,19.39-13.95,20.26-7.87.31C121.87,339.51,104.57,326.14,121.71,314.74Z"/><path class="cls-1" d="M219.82,319.14c-6.08,19.95-23.37,6.57-6.23-4.82-17.14,11.39-21.79-10-1.68-7.7-20.11-2.27-9.94-21.63,3.67-7-13.61-14.65,6.62-22.94,7.29-3-.67-19.95,20.16-13.29,7.51,2.4,12.65-15.69,24.32,2.79,4.21,6.66,20.11-3.87,17.18,17.8-1.06,7.82,18.24,10,2.06,24.69-5.83,5.3C235.59,338.22,213.74,339.09,219.82,319.14Z"/><path class="cls-1" d="M297.81,259.45c7.89,19.39-14,20.26-7.88.31-6.08,19.95-23.37,6.57-6.23-4.82-17.14,11.39-21.79-10-1.68-7.7-20.11-2.27-9.94-21.63,3.67-7-13.61-14.65,6.62-22.94,7.29-3-.67-20,20.16-13.29,7.51,2.4,12.65-15.69,24.32,2.79,4.21,6.66,20.11-3.87,17.18,17.8-1.06,7.81C321.88,264.13,305.7,278.84,297.81,259.45Z"/><path class="cls-1" d="M319.18,163.59c18.24,10,2.06,24.69-5.83,5.3,7.89,19.39-14,20.26-7.88.32-6.08,19.94-23.37,6.57-6.23-4.82-17.14,11.39-21.79-10-1.68-7.71-20.11-2.27-9.94-21.62,3.67-7-13.61-14.64,6.62-22.93,7.29-3-.67-19.94,20.16-13.29,7.51,2.4,12.65-15.69,24.32,2.8,4.21,6.67C340.35,151.91,337.42,173.57,319.18,163.59Z"/><path class="cls-1" d="M273.94,76.42c20.11-3.87,17.17,17.8-1.06,7.81,18.23,10,2.06,24.7-5.83,5.31,7.89,19.39-14,20.26-7.88.31-6.08,20-23.38,6.57-6.24-4.82-17.14,11.39-21.79-10-1.67-7.7-20.12-2.27-9.95-21.63,3.66-7-13.61-14.65,6.62-22.94,7.3-3-.68-20,20.15-13.29,7.51,2.4C282.37,54.07,294.05,72.55,273.94,76.42Z"/></svg>