<svg id="Layer_1" data-name="Layer 1" xmlns="http://www.w3.org/2000/svg" viewBox="0 0 360 360"><defs><style>.cls-1{fill:#262262;}</style></defs><title>Spikes</title><path class="cls-1" d="M245.72,37.75c-19.59,13.71-18.36,20,4.51,22.86-22.87-2.89-25.69,2.75-10.31,20.59C224.54,63.36,219,65.74,219.61,89.91c-.63-24.17-6.33-26.15-20.79-7.26,14.46-18.89,11.3-24.32-11.56-19.82,22.86-4.5,23.7-10.84,3.08-23.12,20.62,12.28,25.08,8,16.29-15.59,8.79,23.6,14.78,23.39,21.87-.78C221.41,47.51,226.13,51.46,245.72,37.75Z"/><path class="cls-1" d="M142.41,23.14c-7.09,24.17-2.37,28.12,17.22,14.41-19.59,13.71-18.36,20,4.51,22.86-22.87-2.89-25.69,2.75-10.31,20.59-15.38-17.84-20.94-15.46-20.31,8.71-.63-24.17-6.33-26.15-20.8-7.26C127.19,63.56,124,58.13,101.16,62.63c22.87-4.5,23.71-10.84,3.09-23.12,20.62,12.28,25.08,8,16.29-15.59C129.33,47.52,135.32,47.31,142.41,23.14Z"/><path class="cls-1" d="M54.47,82.82c8.79,23.61,14.78,23.4,21.87-.77C69.25,106.22,74,110.16,93.55,96.46c-19.58,13.7-18.35,20,4.51,22.85-22.86-2.89-25.68,2.75-10.3,20.6-15.38-17.85-20.94-15.46-20.31,8.71-.63-24.17-6.33-26.16-20.8-7.26C61.12,122.46,58,117,35.09,121.53,58,117,58.8,110.7,38.18,98.41,58.8,110.7,63.26,106.43,54.47,82.82Z"/><path class="cls-1" d="M23,188.86c20.63,12.28,25.09,8,16.29-15.59,8.8,23.6,14.79,23.39,21.87-.78-7.08,24.17-2.37,28.12,17.22,14.42-19.59,13.7-18.35,20,4.51,22.85-22.86-2.89-25.69,2.75-10.31,20.6-15.38-17.85-20.94-15.47-20.3,8.7-.64-24.17-6.33-26.15-20.8-7.25C46,212.91,42.82,207.48,20,212,42.82,207.48,43.67,201.14,23,188.86Z"/><path class="cls-1" d="M62.84,291.65c22.86-4.5,23.71-10.84,3.09-23.12,20.62,12.28,25.08,8,16.29-15.6,8.79,23.61,14.78,23.4,21.87-.77-7.09,24.17-2.37,28.12,17.21,14.41-19.58,13.71-18.35,20,4.51,22.86-22.86-2.89-25.68,2.75-10.3,20.59-15.38-17.84-20.94-15.46-20.31,8.71-.63-24.17-6.33-26.15-20.8-7.26C88.87,292.58,85.7,287.15,62.84,291.65Z"/><path class="cls-1" d="M155.24,343.09c14.47-18.9,11.3-24.33-11.56-19.83,22.86-4.5,23.71-10.83,3.08-23.12,20.63,12.29,25.09,8,16.29-15.59,8.8,23.6,14.79,23.39,21.87-.78-7.08,24.17-2.37,28.12,17.22,14.42-19.59,13.7-18.35,20,4.51,22.85-22.86-2.89-25.69,2.75-10.31,20.6-15.38-17.85-20.94-15.47-20.3,8.7C175.4,326.17,169.71,324.19,155.24,343.09Z"/><path class="cls-1" d="M257,319.11c-.63-24.17-6.33-26.16-20.8-7.26,14.47-18.9,11.3-24.33-11.56-19.83,22.86-4.5,23.71-10.83,3.09-23.12,20.62,12.29,25.08,8,16.29-15.59,8.79,23.61,14.78,23.4,21.87-.77-7.09,24.17-2.37,28.11,17.21,14.41-19.58,13.7-18.35,20,4.51,22.85-22.86-2.89-25.68,2.75-10.31,20.6C261.93,292.55,256.37,294.94,257,319.11Z"/><path class="cls-1" d="M320.51,230.93c-15.37-17.84-20.94-15.46-20.3,8.71-.64-24.17-6.33-26.16-20.8-7.26,14.47-18.9,11.3-24.33-11.56-19.83,22.86-4.5,23.71-10.83,3.09-23.11,20.62,12.28,25.08,8,16.28-15.6,8.8,23.61,14.79,23.4,21.87-.77-7.08,24.17-2.37,28.12,17.22,14.41-19.59,13.71-18.35,20,4.51,22.85C308,207.44,305.14,213.09,320.51,230.93Z"/><path class="cls-1" d="M316.06,119.82c-22.87-2.89-25.69,2.75-10.31,20.59-15.38-17.84-20.94-15.46-20.31,8.71-.63-24.17-6.33-26.15-20.79-7.25C279.11,123,276,117.54,253.09,122c22.86-4.5,23.7-10.84,3.08-23.12,20.62,12.28,25.08,8,16.29-15.59,8.79,23.6,14.78,23.39,21.87-.78C287.24,106.72,292,110.67,311.55,97,292,110.67,293.19,116.93,316.06,119.82Z"/></svg>